{"title":"The Three Burials of Melquiades Estrada BRRiP XviD AC3 Multisubs","uid":8207827,"size":3360454750,"categoryP":"video","categoryS":"hd___movies","magnet":"?xt=urn:btih:61f805a4c3a057d00380547d949cc8bf6a8d43da&amp;dn=The+Three+Burials+of+Melquiades+Estrada+BRRiP+XviD+AC3+Multisubs&amp;tr=udp%3A%2F%2Ftracker.openbittorrent.com%3A80&amp;tr=udp%3A%2F%2Fopen.demonii.com%3A1337&amp;tr=udp%3A%2F%2Ftracker.coppersurfer.tk%3A6969&amp;tr=udp%3A%2F%2Fexodus.desync.com%3A6969","seeders":0,"leechers":1,"uploader":"nekanilla","files":9,"time":1362165910,"description":"-----------------------------------------------------------------------------------\n             The Three Burials of Melquiades Estrada 2005 720p BRRiP XviD AC3 Multisubs nekanilla\n___________________________________________________________________________________\n\n---------------------------------------INFO----------------------------------------\n\nMovie name: The Three Burials of Melquiades Estrada\nCountry and year of production: USA, France / 2005\nSpeech language / subtitle: English, Spanish / Greek, English, Spanish, French, Italian, Swedish, Arabic SRT\nGenre: Drama \nMovie Length: 121 minutes\nWriter: Guillermo Arriaga\nDirected by: Tommy Lee Jones \n\nCannes Film Festival\nWin: Best Actor - Tommy Lee Jones\nWin: Best Screenplay - Guillermo Arriaga\n___________________________________________________________________________________\n\n---------------------------------------PLOT----------------------------------------\nIn Texas nearby the border of Mexico, the newcomer arrogant border patrolman Mike Norton mistakenly kills the Mexican cowboy Melquiades Estrada and buries him in the desert. When Melquiades's body is accidentally found one week later, his best friend, the ranch foreman Pete Perkins, claims the body to fulfill his promise and bury Melquiades in his hometown Jimenez and presses the local sheriff Belmont to find the killer. However, Melquiades is not delivered to Pete because he is not his relative, and his body is reburied in the local cemetery. When Rachel discloses the identity of the killer, Pete kidnaps Mike and forces him to dig the grave and bring the body to Melquiades's family in Mexico. While in their journey to Mexico, the sad reality of the hopeless Mexicans that live in the proximity of the border with USA is disclosed.\n\nWritten by Claudio Carvalho\n\n___________________________________________________________________________________\n\n---------------------------------------CAST----------------------------------------\n\nTommy Lee Jones as Pete Perkins\nBarry Pepper as Ptmn. Mike Norton\nJulio Cedillo as Melquiades Estrada\nDwight Yoakam as Sheriff Belmont\nJanuary Jones as Lou Ann Norton\nMelissa Leo as Rachel\nVanessa Bauche as Mariana\nLevon Helm as Old Man with Radio\nMel Rodriguez as Captain Gomez\nCecilia Suarez as Rosa\nIgnacio Guadalupe as Lucio\n___________________________________________________________________________________\n\n------------------------------------MEDIA INFO-------------------------------------\n     \n                                 Includes sample\nGeneral\nComplete name                  : The Three Burials of Melquiades Estrada 2005 720p BRRiP XviD AC3.avi\nFormat                         : AVI\nFormat/Info                    : Audio Video Interleave\nFormat profile                 : OpenDML\nFormat settings                : rec\nFile size                      : 3.10 GiB\nDuration                       : 2h 1mn\nOverall bit rate               : 3 650 Kbps\nWriting application            : AVI-Mux GUI 1.17.8.3, Feb 16 201019:42:50\n\nVideo\nID                             : 0\nFormat                         : MPEG-4 Visual\nFormat profile                 : Advanced Simple@L5\nFormat settings, BVOP          : 2\nFormat settings, QPel          : No\nFormat settings, GMC           : No warppoints\nFormat settings, Matrix        : Default (H.263)\nCodec ID                       : XVID\nCodec ID/Hint                  : XviD\nDuration                       : 2h 1mn\nBit rate                       : 3 197 Kbps\nWidth                          : 1 280 pixels\nHeight                         : 544 pixels\nDisplay aspect ratio           : 2.35:1\nFrame rate                     : 24.000 fps\nColor space                    : YUV\nChroma subsampling             : 4:2:0\nBit depth                      : 8 bits\nScan type                      : Progressive\nCompression mode               : Lossy\nBits/(Pixel*Frame)             : 0.191\nStream size                    : 2.71 GiB (88%)\nWriting library                : XviD 1.2.1 (UTC 2008-12-04)\n\nAudio\nID                             : 1\nFormat                         : AC-3\nFormat/Info                    : Audio Coding 3\nMode extension                 : CM (complete main)\nCodec ID                       : 2000\nDuration                       : 2h 1mn\nBit rate mode                  : Constant\nBit rate                       : 448 Kbps\nChannel(s)                     : 6 channels\nChannel positions              : Front: L C R, Side: L R, LFE\nSampling rate                  : 48.0 KHz\nBit depth                      : 16 bits\nCompression mode               : Lossy\nStream size                    : 389 MiB (12%)\nAlignment                      : Aligned on interleaves\nInterleave, duration           : 64 ms (1.54 video frames)\nInterleave, preload duration   : 192 ms\nTitle                          : The.Three.Burials.of.Melquiades.Estrada.Audio\n___________________________________________________________________________________\n\n___________________________________________________________________________________\n\n-----------------------------------SCREENSHOTS-------------------------------------\n                         &lt;a href=&quot; http://i.imgur.com/jWi9Tji.png&quot; rel=&quot;nofollow&quot; target=&quot;_NEW&quot;&gt; http://i.imgur.com/jWi9Tji.png&lt;/a&gt;\n                         &lt;a href=&quot; http://i.imgur.com/B1z3SxY.png&quot; rel=&quot;nofollow&quot; target=&quot;_NEW&quot;&gt; http://i.imgur.com/B1z3SxY.png&lt;/a&gt;\n                         &lt;a href=&quot; http://i.imgur.com/TJcWa9w.jpg&quot; rel=&quot;nofollow&quot; target=&quot;_NEW&quot;&gt; http://i.imgur.com/TJcWa9w.jpg&lt;/a&gt;\n                         &lt;a href=&quot; http://i.imgur.com/7c409uN.jpg&quot; rel=&quot;nofollow&quot; target=&quot;_NEW&quot;&gt; http://i.imgur.com/7c409uN.jpg&lt;/a&gt;\n___________________________________________________________________________________\n\n                                Source: The.Three.Burials.of.Melquiades.Estrada.2005.DEU.BluRay.Remux.1080p.AVC.DTS-HD.MA.5.1-HiFi\n\n                                Rip   : By   nekanilla\t","torrent":{"xt":"urn:btih:61f805a4c3a057d00380547d949cc8bf6a8d43da","amp;dn":"The+Three+Burials+of+Melquiades+Estrada+BRRiP+XviD+AC3+Multisubs","amp;tr":["udp%3A%2F%2Ftracker.openbittorrent.com%3A80","udp%3A%2F%2Fopen.demonii.com%3A1337","udp%3A%2F%2Ftracker.coppersurfer.tk%3A6969","udp%3A%2F%2Fexodus.desync.com%3A6969"],"infoHash":"61f805a4c3a057d00380547d949cc8bf6a8d43da","infoHashBuffer":{"type":"Buffer","data":[97,248,5,164,195,160,87,208,3,128,84,125,148,156,200,191,106,141,67,218]},"announce":[],"urlList":[]}}